<svg version="1.1" xmlns="http://www.w3.org/2000/svg" x="0px" y="0px" width="244.202px" height="44.477px" viewBox="0 0 244.202 44.477" role="img" aria-label="logo Studio Emma"> <g> <g> <path fill="#404041" d="M67.868,26.452c1.113,0.708,3.104,1.617,4.822,1.617c1.417,0,2.562-0.641,2.562-2.157 c0-1.518-1.28-1.989-2.865-2.462c-2.463-0.708-5.228-1.518-5.228-5.024s2.9-5.361,6.171-5.361c2.529,0,4.721,1.013,6.104,2.396 l-1.922,2.359c-1.281-1.112-2.698-1.82-4.114-1.82c-1.214,0-2.361,0.606-2.361,1.956c0,1.551,1.417,1.988,3.001,2.462 c2.461,0.774,5.193,1.753,5.193,5.227c0,3.507-2.598,5.396-6.374,5.396c-2.9,0-5.294-1.045-6.171-1.721L67.868,26.452z"></path> <path fill="#404041" d="M85.943,7.096v6.475h4.553v3.137h-4.553v8.564c0,2.059,0.81,2.664,2.191,2.664 c0.911,0,1.755-0.371,2.294-0.708l1.012,2.598c-1.012,0.708-2.698,1.18-4.283,1.18c-5.261,0-5.227-3.237-5.227-5.599V7.096H85.943 z"></path> <path fill="#404041" d="M107.02,13.57v14.129l0.27,2.833h-3.438l-0.236-1.988h-0.135c-1.146,1.686-2.967,2.461-4.891,2.461 c-3.709,0-5.563-1.955-5.563-5.936V13.57h4.013v10.758c0,2.058,0.371,3.574,2.63,3.574c1.821,0,3.338-1.618,3.338-3.236V13.57 H107.02z"></path> <path fill="#404041" d="M120.846,13.469V7.096h3.979v20.132l0.303,3.306h-3.438l-0.271-1.821l-0.135-0.033 c-1.045,1.551-2.73,2.36-4.586,2.36c-5.261,0-6.644-4.114-6.644-8.329c0-5.768,2.968-9.646,8.16-9.646 C119.294,13.064,120.07,13.232,120.846,13.469z M120.846,16.538c-0.607-0.271-1.483-0.54-2.529-0.54 c-3.204,0-4.283,3.035-4.283,6.34c0,3.067,0.742,5.731,3.473,5.731c2.058,0,3.339-1.482,3.339-2.799L120.846,16.538 L120.846,16.538z"></path> <path fill="#404041" d="M130.76,6.455c1.384,0,2.326,1.012,2.326,2.26c0,1.281-0.978,2.226-2.326,2.226 c-1.416,0-2.326-0.943-2.326-2.226C128.433,7.466,129.377,6.455,130.76,6.455z M128.77,30.531V13.57h4.014v16.962H128.77z"></path> <path fill="#404041" d="M143.541,13.064c2.495,0,7.353,0.775,7.353,8.531c0,6.475-3.439,9.442-7.893,9.442 c-4.519,0-7.316-2.9-7.316-9.004C135.683,15.021,140.067,13.064,143.541,13.064z M146.778,22.136c0-3.777-0.877-6.104-3.439-6.104 c-2.462,0-3.573,2.294-3.573,5.53c0,3.136,0.506,6.508,3.506,6.508C145.733,28.07,146.778,25.643,146.778,22.136z"></path> <path fill="#404041" d="M173.25,17.752c0,5.191-6.44,5.867-9.544,5.9c0.136,2.191,1.383,4.316,4.249,4.316 c1.99,0,3.44-0.911,4.249-1.484l1.248,2.664c-0.54,0.474-2.766,1.89-5.936,1.89c-5.563,0-7.856-3.574-7.856-8.634 c0-4.957,2.866-9.341,8.229-9.341C171.192,13.064,173.25,14.75,173.25,17.752z M167.652,15.931c-2.698,0-3.979,2.63-4.081,5.126 c1.821,0.033,6.104-0.54,6.104-3.137C169.674,16.673,168.866,15.931,167.652,15.931z"></path> <path fill="#404041" d="M175.847,30.531V16.504l-0.305-2.935h3.338l0.338,2.124c1.112-1.686,2.766-2.63,4.891-2.63 c2.124,0,3.743,0.811,4.688,2.697c1.012-1.753,2.8-2.697,4.924-2.697c3.405,0,5.361,1.989,5.361,5.97v11.498h-4.014V19.843 c0-1.99-0.337-3.676-2.562-3.676c-1.854,0-3.034,1.551-3.034,3.305v11.062h-4.014v-10.69c0-1.821-0.235-3.676-2.562-3.676 c-1.89,0-3.035,1.618-3.035,3.438v10.926H175.847z"></path> <path fill="#404041" d="M202.959,30.531V16.504l-0.304-2.935h3.338l0.338,2.124c1.112-1.686,2.766-2.63,4.891-2.63 c2.124,0,3.742,0.811,4.688,2.697c1.011-1.753,2.799-2.697,4.923-2.697c3.406,0,5.362,1.989,5.362,5.97v11.498h-4.014V19.843 c0-1.99-0.338-3.676-2.562-3.676c-1.854,0-3.035,1.551-3.035,3.305v11.062h-4.013v-10.69c0-1.821-0.236-3.676-2.562-3.676 c-1.889,0-3.034,1.618-3.034,3.438v10.926H202.959z"></path> <path fill="#404041" d="M243.898,27.295l0.304,3.236h-3.474l-0.235-1.786l-0.135-0.034c-1.046,1.518-2.767,2.26-4.62,2.26 c-4.755,0-6.609-3.372-6.609-8.194c0-5.936,2.968-9.712,8.769-9.712c1.111,0,3.574,0.271,6.002,1.181L243.898,27.295 L243.898,27.295z M239.919,16.437c-0.506-0.235-1.483-0.438-2.528-0.438c-3.204,0-4.283,3.001-4.283,6.644 c0,2.799,0.675,5.463,3.508,5.463c2.091,0,3.305-1.483,3.305-2.934L239.919,16.437L239.919,16.437z"></path> </g> <g> <path fill="#54A8D7" d="M32.709,22.482c-2.036,0.938-4.571,1.141-6.191,1.157c0.133,2.165,1.365,4.264,4.196,4.264 c1.966,0,3.397-0.898,4.197-1.466l1.233,2.632c-0.533,0.467-2.731,1.865-5.863,1.865c-5.468,0-7.736-3.497-7.759-8.452 c-1.044,0-2.087,0-3.122,0c0.7,0.733,1.155,1.721,1.155,3.122c0,3.465-2.565,5.33-6.297,5.33c-2.863,0-5.229-1.033-6.096-1.699 l1.166-2.831c1.1,0.699,3.064,1.6,4.763,1.6c1.399,0,2.532-0.633,2.532-2.132s-1.266-1.966-2.832-2.433 c-0.905-0.261-1.854-0.536-2.687-0.957c-5.479,0-9.784,0-11.098,0v19.211c0,1.537,1.294,2.783,2.891,2.783h38.696 c1.596,0,2.89-1.246,2.89-2.783V22.482C42.295,22.482,37.909,22.482,32.709,22.482z"></path> <g> <path fill="#2F7DC0" d="M41.595,0H2.898C1.302,0,0.008,1.295,0.008,2.891v18.883c1.522,0,5.28,0,10.018,0 C9.19,21.06,8.63,20.042,8.63,18.477c0-3.465,2.865-5.297,6.097-5.297c2.499,0,4.664,1,6.028,2.365l-1.897,2.332 c-1.267-1.101-2.665-1.799-4.064-1.799c-1.199,0-2.332,0.6-2.332,1.932c0,1.532,1.399,1.966,2.964,2.432 c1.076,0.339,2.203,0.72,3.127,1.332c1.319,0,2.654,0,3.99,0c0.235-4.629,3.039-8.594,8.104-8.594 c3.265,0,5.296,1.666,5.296,4.631c0,1.837-0.823,3.095-2.012,3.963c4.772,0,8.683,0,10.553,0V2.891 C44.484,1.295,43.19,0,41.595,0z"></path> <path fill="#2F7DC0" d="M30.414,16.012c-2.665,0-3.931,2.598-4.031,5.062c1.8,0.033,6.029-0.531,6.029-3.098 C32.413,16.744,31.613,16.012,30.414,16.012z"></path> </g> </g> </g> </svg>
