<?xml version="1.0" encoding="UTF-8" standalone="no"?>
<!-- Generator: Adobe Illustrator 19.2.1, SVG Export Plug-In . SVG Version: 6.00 Build 0)  -->

<svg
   xmlns:dc="http://purl.org/dc/elements/1.1/"
   xmlns:cc="http://creativecommons.org/ns#"
   xmlns:rdf="http://www.w3.org/1999/02/22-rdf-syntax-ns#"
   xmlns:svg="http://www.w3.org/2000/svg"
   xmlns="http://www.w3.org/2000/svg"
   xmlns:sodipodi="http://sodipodi.sourceforge.net/DTD/sodipodi-0.dtd"
   xmlns:inkscape="http://www.inkscape.org/namespaces/inkscape"
   version="1.1"
   id="layer"
   x="0px"
   y="0px"
   viewBox="0 0 652 322"
   xml:space="preserve"
   sodipodi:docname="combell.svg"
   width="652"
   height="322"
   inkscape:version="0.92.4 5da689c313, 2019-01-14"><metadata
   id="metadata33"><rdf:RDF><cc:Work
       rdf:about=""><dc:format>image/svg+xml</dc:format><dc:type
         rdf:resource="http://purl.org/dc/dcmitype/StillImage" /><dc:title></dc:title></cc:Work></rdf:RDF></metadata><defs
   id="defs31" /><sodipodi:namedview
   pagecolor="#ffffff"
   bordercolor="#666666"
   borderopacity="1"
   objecttolerance="10"
   gridtolerance="10"
   guidetolerance="10"
   inkscape:pageopacity="0"
   inkscape:pageshadow="2"
   inkscape:window-width="1918"
   inkscape:window-height="1042"
   id="namedview29"
   showgrid="false"
   inkscape:zoom="0.36196319"
   inkscape:cx="-19.338983"
   inkscape:cy="326"
   inkscape:window-x="1920"
   inkscape:window-y="37"
   inkscape:window-maximized="0"
   inkscape:current-layer="layer" />
<style
   type="text/css"
   id="style2">
	.st0{fill:#051594;}
	.st1{fill:#0066FF;}
</style>
<g
   id="g26"
   transform="translate(4,-160)">
	<g
   transform="translate(83)"
   id="g18">
		<path
   class="st0"
   d="m 505.1,267.3 -14.9,3.3 c -0.9,0.2 -1.6,1 -1.6,2 v 84.8 c 0,1.2 0.9,2.1 2.1,2.1 h 14.9 c 1.2,0 2.1,-0.9 2.1,-2.1 v -88.1 c -0.1,-1.3 -1.3,-2.3 -2.6,-2 z"
   id="path4"
   inkscape:connector-curvature="0"
   style="fill:#051594" />
		<path
   class="st0"
   d="m 171.1,290.1 c -19.5,0 -35.3,15.8 -35.3,35.3 0,19.5 15.8,35.3 35.3,35.3 19.5,0 35.3,-15.8 35.3,-35.3 0,-19.5 -15.8,-35.3 -35.3,-35.3 z m 0,53.1 c -9.8,0 -17.8,-8 -17.8,-17.8 0,-9.8 8,-17.8 17.8,-17.8 9.8,0 17.8,8 17.8,17.8 0,9.8 -8,17.8 -17.8,17.8 z"
   id="path6"
   inkscape:connector-curvature="0"
   style="fill:#051594" />
		<path
   class="st0"
   d="m 534.8,261 -14.9,3.3 c -0.9,0.2 -1.6,1 -1.6,2 v 91.1 c 0,1.2 0.9,2.1 2.1,2.1 h 14.9 c 1.2,0 2.1,-0.9 2.1,-2.1 V 263 c -0.1,-1.3 -1.3,-2.3 -2.6,-2 z"
   id="path8"
   inkscape:connector-curvature="0"
   style="fill:#051594" />
		<path
   class="st0"
   d="m 125.8,341.8 c -0.6,-0.8 -1.8,-1.1 -2.7,-0.5 -3.3,2 -8.5,4.5 -14.5,4.5 -4.8,0 -9,-1.2 -12.3,-3.7 -3.7,-2.7 -7.6,-8.6 -7.6,-16.7 0,-8.4 4.2,-13.2 7.6,-15.8 3.3,-2.5 7.4,-3.7 12.3,-3.7 5.1,0 9.6,2.1 12.7,4.1 0.9,0.6 2.1,0.4 2.7,-0.5 l 6.8,-9 c 0.7,-0.9 0.5,-2.3 -0.5,-2.9 -4.7,-3.3 -14.1,-7.5 -23.4,-7.5 -23.9,0 -32.5,17.4 -34,20.9 -1.8,4.2 -2.8,9.1 -2.8,14.3 v 0.5 c 0,5.2 0.9,10 2.8,14.3 1.8,4.2 4.4,8 7.7,11.1 3.3,3.1 7.2,5.5 11.7,7.2 4.5,1.7 9.4,2.5 14.7,2.5 6.4,0 12,-1.1 16.7,-3.4 2.8,-1.3 5.4,-3 7.7,-4.9 0.8,-0.7 1,-2 0.3,-2.8 z"
   id="path10"
   inkscape:connector-curvature="0"
   style="fill:#051594" />
		<path
   class="st0"
   d="m 373.4,290.1 c -6,0 -11.3,1.5 -15.8,4.5 l -1.7,1.2 v -26.7 c 0,-1.3 -1.2,-2.3 -2.5,-2 l -15.1,3.2 c -0.9,0.3 -1.5,1.1 -1.5,2 v 86.3 c 0,0.5 0.4,1 1,1 h 8.3 c 0.6,0 1.2,-0.3 1.6,-0.8 l 4.7,-6 0.7,0.7 c 4.8,4.9 10.9,7.4 17.9,7.4 19.5,0 35.3,-15.8 35.3,-35.3 0.2,-20.3 -14,-35.5 -32.9,-35.5 z m -2.2,53.1 c -4.9,0 -9.7,-2.1 -13,-5.7 l -2.2,-2.7 v -18.7 l 2.2,-2.8 c 3.4,-3.6 8.1,-5.7 13,-5.7 9.8,0 17.8,8 17.8,17.8 -0.1,9.8 -8,17.8 -17.8,17.8 z"
   id="path12"
   inkscape:connector-curvature="0"
   style="fill:#051594" />
		<path
   class="st0"
   d="m 296.9,290.1 c -11.2,0 -19.6,6.6 -23,9.9 -5.1,-6.7 -13,-9.9 -22.5,-9.9 -12.1,0 -20,8.1 -20,8.1 l -4.7,-6 c -0.4,-0.5 -1,-0.8 -1.6,-0.8 h -8.3 c -0.5,0 -1,0.4 -1,1 v 65.1 c 0,0.9 0.6,1.7 1.5,2 h 15.1 c 1.3,0.3 2.5,-0.7 2.5,-2 V 355.9 334.8 316 c 0,0 4.5,-8.4 14.6,-8.4 7.4,0 13.3,4 13.3,15.8 v 31.9 c 0,2.3 1.9,4.2 4.2,4.2 h 9.2 c 2.3,0 4.2,-1.9 4.2,-4.2 v -31.9 c 0,0 0,-0.1 0,-0.1 V 316 c 0,0 4.5,-8.4 14.6,-8.4 7.4,0 13.3,4 13.3,15.8 v 31.9 c 0,2.3 1.9,4.2 4.2,4.2 h 9.2 c 2.3,0 4.2,-1.9 4.2,-4.2 v -31.9 c -0.1,-23.3 -11.9,-33.3 -29,-33.3 z"
   id="path14"
   inkscape:connector-curvature="0"
   style="fill:#051594" />
		<path
   class="st0"
   d="m 477.6,313.6 c -1.3,-4.4 -3.3,-8.4 -6.1,-11.8 -2.7,-3.4 -6.1,-6.1 -10.2,-8.1 -4,-2 -8.9,-3 -14.4,-3 0,0 -0.1,0 -0.1,0 -4.9,0 -9.4,1 -13.5,2.8 -4,1.9 -7.5,4.4 -10.4,7.6 -2.9,3.2 -5.2,7 -6.8,11.3 -1.6,4.3 -2.4,8.9 -2.4,13.8 v 0.3 c 0,5.2 0.9,10.1 2.7,14.3 1.8,4.2 4.2,8 7.4,11.1 3.1,3.1 6.9,5.5 11.2,7.2 4.3,1.7 9,2.5 14,2.5 0,0 0.1,0 0.1,0 7.9,0 15.9,-0.7 26.1,-8.4 0.8,-0.6 0.9,-1.6 0.4,-2.4 -1,-1.3 -2.8,-3.9 -6.2,-8.4 -0.5,-0.7 -1.5,-0.9 -2.3,-0.5 -3.3,2 -8.2,4.7 -16.5,4.7 0,0 0,0 -0.1,0 -4.8,0 -8.3,-0.9 -11.6,-3.4 -2.6,-2 -5.3,-5.9 -6.5,-10.7 l -0.1,-0.6 45.7,-0.1 c 0.5,0 0.9,-0.2 1.2,-0.5 0.3,-0.3 0.5,-0.8 0.5,-1.2 V 328 c -0.1,-4.8 -0.8,-9.9 -2.1,-14.4 z m -45.6,6.1 c 0.9,-6.4 3.2,-9.6 4.9,-11.4 2.7,-2.8 5.7,-3.9 10,-3.9 0,0 0,0 0,0 4.3,0 7.4,1.3 10,4.1 2.6,2.8 3.9,6.5 4.2,11.1 H 432 Z"
   id="path16"
   inkscape:connector-curvature="0"
   style="fill:#051594" />
	</g>
	<path
   class="st1"
   d="m 116.8,330.3 c 1.8,0 3.2,-1.4 3.2,-3.2 v -30.2 c 0,-1.1 -0.6,-2.2 -1.6,-2.8 L 71.3,267 c -1,-0.6 -2.2,-0.6 -3.2,0 l -9.5,5.5 c -1.5,0.9 -2,2.8 -1.2,4.3 l 30,51.9 c 0.6,1 1.6,1.6 2.8,1.6 z"
   id="path20"
   inkscape:connector-curvature="0"
   style="fill:#0066ff" />
	<path
   class="st1"
   d="m 119.1,353.6 c 1,-0.6 1.6,-1.6 1.6,-2.8 v -11 c 0,-1.8 -1.4,-3.2 -3.2,-3.2 H 57.6 c -1.1,0 -2.2,0.6 -2.8,1.6 l -13.3,23.1 c -0.9,1.5 -0.4,3.5 1.2,4.3 l 26.1,15.1 c 1,0.6 2.2,0.6 3.2,0 z"
   id="path22"
   inkscape:connector-curvature="0"
   style="fill:#0066ff" />
	<path
   class="st1"
   d="m 31.4,358.6 c 1.5,0.9 3.5,0.4 4.3,-1.2 l 30,-51.9 c 0.6,-1 0.6,-2.2 0,-3.2 L 52.4,279.2 c -0.9,-1.5 -2.8,-2 -4.3,-1.2 L 22,293.1 c -1,0.6 -1.6,1.6 -1.6,2.8 v 54.4 c 0,1.1 0.6,2.2 1.6,2.8 z"
   id="path24"
   inkscape:connector-curvature="0"
   style="fill:#0066ff" />
</g>
</svg>